#!OML:ASF I:\Actors\actors\Patient Classification 2\Patient 1\Session 1\actor1.ASF
:FULLY-SPECIFIED
:DEGREES
424
root -0.621491 18.6696 5.40999 -1.59413 4.44677 -1.11025
lowerback 11.5481 -2.90672 1.9532
upperback 3.59695 -3.55382 1.86372
thorax -2.70238 -1.76733 1.32308
lowerneck -4.48052 -7.46399 -7.72109
upperneck 39.0455 -11.5199 4.27629
head 15.1309 -5.58326 1.53931
rclavicle 9.34288e-015 -2.74323e-014
rhumerus -82.6737 41.068 -102.521
rradius 101.747
rwrist -39.3948
rhand 10.533 -51.8778
rfingers 7.12502
rthumb 35.6317 -438.284
lclavicle 9.34288e-015 -2.74323e-014
lhumerus -55.7717 -59.1826 123.118
lradius 93.5438
lwrist 39.555
lhand 18.2218 7.60079
lfingers 7.12502
lthumb 42.8751 31.8907
rfemur 0 0 0
rtibia 0
rfoot 0 0
rtoes 0
lfemur -4.91233 -4.37635 -12.897
ltibia 22.8558
lfoot -18.6711 6.51912
ltoes -56.7758
425
root -0.597363 18.678 5.39689 -1.18602 4.05939 -1.0998
lowerback 11.1764 -2.74751 2.18542
upperback 3.62774 -3.33043 1.92955
thorax -2.47781 -1.6564 1.21025
lowerneck -4.62488 -7.56623 -7.71055
upperneck 39.0739 -11.6143 4.14298
head 15.1749 -5.63022 1.46068
rclavicle -4.08502e-014 4.37326e-015
rhumerus -81.7521 40.8562 -101.291
rradius 101.243
rwrist -39.2792
rhand 10.882 -51.0287
rfingers 7.12502
rthumb 35.9624 -437.354
lclavicle -4.08502e-014 4.37326e-015
lhumerus -55.2652 -58.6972 122.824
lradius 93.4799
lwrist 38.2845
lhand 18.4491 6.57106
lfingers 7.12502
lthumb 43.0876 30.786
rfemur 0 0 0
rtibia 0
rfoot 0 0
rtoes 0
lfemur -5.36034 -4.43294 -13.0237
ltibia 22.9044
lfoot -18.7845 6.97799
ltoes -56.6904
426
root -0.593414 18.6802 5.39798 -1.13561 4.11128 -1.1087
lowerback 11.2017 -2.71664 2.2556
upperback 3.62986 -3.27813 2.01008
thorax -2.48863 -1.63048 1.24887
lowerneck -4.57592 -7.65281 -7.78875
upperneck 39.1394 -11.7356 4.14033
head 15.2151 -5.69138 1.45606
rclavicle -3.27995e-015 1.43125e-014
rhumerus -80.7382 40.3571 -99.9955
rradius 100.477
rwrist -38.9321
rhand 11.4605 -50.1932
rfingers 7.12502
rthumb 36.5102 -436.383
lclavicle -3.27995e-015 1.43125e-014
lhumerus -55.2244 -58.0781 122.885
lradius 93.4637
lwrist 36.9595
lhand 18.58 5.65258
lfingers 7.12502
lthumb 43.21 29.8239
rfemur 0 0 0
rtibia 0
rfoot 0 0
rtoes 0
lfemur -5.4517 -4.3973 -13.0184
ltibia 22.9475
lfoot -18.7617 6.925
ltoes -56.7234
427
root -0.58609 18.6818 5.39897 -1.04469 4.13024 -1.13019
lowerback 11.1942 -2.69877 2.34487
upperback 3.59684 -3.241 2.10161
thorax -2.51841 -1.61231 1.28971
lowerneck -4.43757 -7.70941 -7.92673
upperneck 39.174 -11.8183 4.17354
head 15.2243 -5.74357 1.48677
rclavicle 3.67752e-014 -5.1684e-015
rhumerus -79.398 39.8269 -98.5023
rradius 99.3958
rwrist -38.5643
rhand 12.3583 -49.9233
rfingers 7.12502
rthumb 37.3595 -435.894
lclavicle 3.67752e-014 -5.1684e-015
lhumerus -55.1568 -57.337 122.962
lradius 93.4341
lwrist 35.5796
lhand 18.8414 4.87667
lfingers 7.12502
lthumb 43.4543 28.9601
rfemur 0 0 0
rtibia 0
rfoot 0 0
rtoes 0
lfemur -5.57615 -4.30639 -13.0046
ltibia 22.9806
lfoot -18.7232 6.86893
ltoes -56.7977
428
root -0.576744 18.6838 5.39984 -0.925645 4.10657 -1.15838
lowerback 11.1622 -2.64191 2.49374
upperback 3.54641 -3.14581 2.20654
thorax -2.55553 -1.56538 1.30277
lowerneck -4.24047 -7.79052 -8.07433
upperneck 39.1577 -11.9351 4.20941
head 15.1988 -5.81257 1.51809
rclavicle 1.97791e-014 2.22639e-014
rhumerus -77.7938 39.1238 -96.7976
rradius 98.0491
rwrist -38.1414
rhand 13.202 -50.2129
rfingers 7.12502
rthumb 38.1566 -435.969
lclavicle 1.97791e-014 2.22639e-014
lhumerus -55.1595 -56.5874 123.157
lradius 93.3939
lwrist 34.1861
lhand 19.2256 4.05125
lfingers 7.12502
lthumb 43.813 28.0035
rfemur 0 0 0
rtibia 0
rfoot 0 0
rtoes 0
lfemur -5.70068 -4.31925 -12.9991
ltibia 22.996
lfoot -18.7511 6.913
ltoes -56.8119
